<svg width="24" height="24" viewBox="0 0 24 24" fill="none" xmlns="http://www.w3.org/2000/svg">
<path d="M20 8V16C20 17.3261 19.4732 18.5979 18.5355 19.5355C17.5979 20.4732 16.3261 21 15 21H9C7.67392 21 6.40215 20.4732 5.46447 19.5355C4.52678 18.5979 4 17.3261 4 16V8H20ZM21 7H3V16C3 17.5913 3.63214 19.1174 4.75736 20.2426C5.88258 21.3679 7.4087 22 9 22H15C16.5913 22 18.1174 21.3679 19.2426 20.2426C20.3679 19.1174 21 17.5913 21 16V7Z" fill="#2D2D2D"/>
<path d="M8 10H7V12H8V10Z" fill="#2D2D2D"/>
<path d="M12 2C10.6739 2 9.40215 2.52678 8.46447 3.46447C7.52678 4.40215 7 5.67392 7 7V8H8V7C8 5.93913 8.42143 4.92172 9.17157 4.17157C9.92172 3.42143 10.9391 3 12 3C13.0609 3 14.0783 3.42143 14.8284 4.17157C15.5786 4.92172 16 5.93913 16 7V12H17V7C17 5.67392 16.4732 4.40215 15.5355 3.46447C14.5979 2.52678 13.3261 2 12 2Z" fill="#2D2D2D"/>
</svg>
